HIERARCHY
ROOT hip
{
	OFFSET 0.000000 0.000000 0.000000 
	CHANNELS 6 Xposition Yposition Zposition Xrotation Zrotation Yrotation
	JOINT abdomen
	{
		OFFSET 0.000000 3.402643 0.000000 
		CHANNELS 3 Xrotation Zrotation Yrotation
		JOINT chest
		{
			OFFSET 0.000000 8.438565 -0.680529 
			CHANNELS 3 Xrotation Zrotation Yrotation
			JOINT neck
			{
				OFFSET 0.000000 10.207942 -0.272212 
				CHANNELS 3 Xrotation Zrotation Yrotation
				JOINT head
				{
					OFFSET 0.000000 3.130431 0.000000 
					CHANNELS 3 Xrotation Zrotation Yrotation
					End Site
					{
						OFFSET 0.000000 3.130435 0.000000 
					}
				}
			}
			JOINT lCollar
			{
				OFFSET 3.470700 6.669187 -0.816635 
				CHANNELS 3 Yrotation Zrotation Xrotation
				JOINT lShldr
				{
					OFFSET 3.198488 0.000000 0.000000 
					CHANNELS 3 Zrotation Yrotation Xrotation
					JOINT lForeArm
					{
						OFFSET 10.139888 0.000000 0.000000 
						CHANNELS 3 Yrotation Zrotation Xrotation
						JOINT lHand
						{
							OFFSET 8.370511 0.000000 0.000000 
							CHANNELS 3 Zrotation Yrotation Xrotation
							End Site
							{
								OFFSET 4.083176 0.000000 0.000000 
							}
						}
					}
				}
			}
			JOINT rCollar
			{
				OFFSET -3.470700 6.669187 -0.816635 
				CHANNELS 3 Yrotation Zrotation Xrotation
				JOINT rShldr
				{
					OFFSET -3.198488 0.000000 0.000000 
					CHANNELS 3 Zrotation Yrotation Xrotation
					JOINT rForeArm
					{
						OFFSET -10.139888 0.000000 0.000000 
						CHANNELS 3 Yrotation Zrotation Xrotation
						JOINT rHand
						{
							OFFSET -8.370511 0.000000 0.000000 
							CHANNELS 3 Zrotation Yrotation Xrotation
							End Site
							{
								OFFSET -4.083176 0.000000 0.000000 
							}
						}
					}
				}
			}
		}
	}
	JOINT lThigh
	{
		OFFSET 5.308129 -1.633274 1.361059 
		CHANNELS 3 Xrotation Zrotation Yrotation
		JOINT lShin
		{
			OFFSET -2.041588 -20.007561 0.000000 
			CHANNELS 3 Xrotation Zrotation Yrotation
			JOINT lFoot
			{
				OFFSET 0.000000 -19.190928 -1.224953 
				CHANNELS 3 Xrotation Yrotation Zrotation
				End Site
				{
					OFFSET 0.000000 -2.449906 4.627600 
				}
			}
		}
	}
	JOINT rThigh
	{
		OFFSET -5.308129 -1.633274 1.361059 
		CHANNELS 3 Xrotation Zrotation Yrotation
		JOINT rShin
		{
			OFFSET 2.041588 -20.007561 0.000000 
			CHANNELS 3 Xrotation Zrotation Yrotation
			JOINT rFoot
			{
				OFFSET 0.000000 -19.190928 -1.224953 
				CHANNELS 3 Xrotation Yrotation Zrotation
				End Site
				{
					OFFSET 0.000000 -2.449906 4.627600 
				}
			}
		}
	}
}
MOTION
Frames: 16
Frame Time: 0.016667
-0.251179 51.942680 1.057343 -4.372482 7.171334 40.776966 31.008293 -0.621641 5.513914 -0.125349 0.555153 6.279573 -8.436088 -5.135570 0.589940 6.044064 2.393105 -55.580643 0.298422 -7.268232 -0.384511 -58.254971 22.733721 -24.053425 -12.110251 -5.000000 45.000000 -22.048399 -2.151236 19.541437 6.199870 -0.416829 0.023880 13.639915 26.841850 -4.049313 40.291237 -5.000000 -26.522947 -19.315411 30.000000 45.000000 1.758842 16.479256 -15.723446 0.705717 -8.701088 -0.567260 1.496444 -8.949773 -13.351199 25.087708 -2.686008 -39.995712 3.330034 2.654178 0.136234 -9.061924 -17.280943 9.354259 
-0.282413 51.945652 1.097356 -4.425326 7.079760 40.291412 30.997103 -0.790210 5.354636 -0.164258 0.574724 6.103800 -8.434330 -4.961775 0.563666 6.089797 2.537585 -55.138996 0.181434 -7.238955 -0.383002 -58.637051 23.304304 -24.749573 -11.409615 -5.000000 45.000000 -22.802341 -2.225299 20.011206 6.209566 -0.143756 0.009765 14.789601 26.327679 -3.396347 43.533798 -5.000000 -24.602921 -19.755196 30.000000 45.000000 1.963680 16.584209 -15.493403 0.675733 -8.614902 -0.535770 1.380139 -8.636012 -13.334356 25.027689 -2.725492 -39.998894 3.284800 2.647584 0.153202 -9.056686 -17.213657 9.298631 
-0.313652 51.948631 1.137372 -4.493444 6.979197 39.796276 30.985106 -0.981002 5.196550 -0.192921 0.604048 5.918265 -8.433461 -4.786517 0.547009 6.127788 2.684525 -54.697845 0.064445 -7.209679 -0.381492 -59.031330 23.872837 -25.451916 -10.723745 -5.000000 45.000000 -23.554314 -2.279350 20.481476 6.219329 0.129318 -0.004350 15.913395 25.808237 -2.769419 46.825283 -5.000000 -22.656475 -20.196316 30.000000 45.000000 2.158835 16.678528 -15.234923 0.665922 -8.507478 -0.506759 1.262991 -8.279016 -13.290846 24.955248 -2.736841 -40.000000 3.251026 2.642464 0.160601 -9.078695 -17.147417 9.230660 
-0.340134 51.953972 1.175019 -4.613759 6.847628 39.042141 30.953205 -1.145361 4.979643 -0.229975 0.652852 5.722965 -8.383096 -4.622376 0.522188 6.248404 2.785647 -53.950256 -0.120189 -7.258429 -0.374321 -59.448868 24.231483 -26.080631 -10.272504 -5.000000 45.000000 -24.177509 -2.340344 20.762215 6.229187 0.470659 -0.021994 16.962816 25.279604 -2.180517 50.789810 -5.000000 -20.009222 -20.650906 30.000000 45.000000 2.480737 16.829334 -14.743580 0.686292 -8.426844 -0.470922 1.123714 -7.924998 -13.270356 24.881382 -2.823658 -39.991833 3.181722 2.603795 0.156039 -9.034533 -16.954376 9.196556 
-0.365426 51.959911 1.212072 -4.750939 6.702452 38.208538 30.901699 -1.322921 4.768259 -0.267229 0.701666 5.508132 -8.332886 -4.467891 0.498823 6.386226 2.869307 -53.132767 -0.335488 -7.326695 -0.377844 -59.876163 24.542189 -26.682957 -9.874771 -5.000000 45.000000 -24.762386 -2.397416 20.997700 6.229407 0.841259 -0.041149 17.988230 24.729656 -1.618423 54.939762 -5.000000 -17.255396 -21.097616 29.845116 45.000000 2.832767 16.976675 -14.140368 0.716487 -8.336219 -0.484979 0.997924 -7.562500 -13.265901 24.792933 -2.892066 -39.994297 3.094969 2.556049 0.130772 -9.024521 -16.774380 9.121177 
-0.389528 51.967625 1.247345 -4.894934 6.542992 37.285835 30.822905 -1.488445 4.529336 -0.305670 0.740767 5.273772 -8.252793 -4.324523 0.467287 6.546057 2.973913 -52.188831 -0.570389 -7.404715 -0.381870 -60.319832 24.706627 -27.221003 -9.611909 -5.000000 45.000000 -25.217463 -2.417798 21.187351 6.239516 1.211858 -0.060302 18.918619 24.191141 -1.088737 59.122372 -5.000000 -14.493773 -21.417807 29.352369 45.000000 3.232592 17.136433 -13.471458 0.734097 -8.255785 -0.458908 0.828345 -7.201022 -13.235142 24.691631 -3.010312 -40.000000 3.040690 2.529691 0.127515 -9.006724 -16.519117 9.050782 
-0.411844 51.978024 1.279948 -5.039752 6.371463 36.225704 30.718254 -1.624092 4.269652 -0.356325 0.750661 5.000351 -8.124834 -4.199002 0.447581 6.766068 3.090563 -51.079575 -0.844491 -7.502238 -0.386902 -60.779366 24.674540 -27.643841 -9.550470 -5.000000 45.000000 -25.451221 -2.406312 21.322542 6.259571 1.621467 -0.081468 19.740463 23.669037 -0.608562 63.301205 -5.000000 -11.758953 -21.515516 28.641912 45.000000 3.681770 17.304855 -12.647053 0.753545 -8.195163 -0.461756 0.662398 -6.901534 -13.225092 24.588259 -3.125839 -39.998775 2.928245 2.496692 0.110540 -8.911195 -16.204235 9.028544 
-0.434159 51.988415 1.312550 -5.176507 6.190886 35.166801 30.605307 -1.750527 4.013751 -0.407043 0.760550 4.736697 -8.006066 -4.084599 0.420437 6.979965 3.208762 -49.960167 -1.118535 -7.590010 -0.391429 -61.228146 24.642569 -28.063488 -9.489244 -5.000000 45.000000 -25.694418 -2.385996 21.467119 6.279777 2.031077 -0.102976 20.551462 23.147797 -0.139722 67.407318 -5.000000 -9.259356 -21.601116 27.943764 45.000000 4.121149 17.479418 -11.831483 0.773583 -8.134118 -0.445082 0.527993 -6.584936 -13.193578 24.458998 -3.273273 -39.774918 2.843193 2.460288 0.125029 -8.793101 -15.875241 8.992956 
-0.449038 52.000282 1.336262 -5.374651 5.981479 33.930672 30.466612 -1.810178 3.755991 -0.466708 0.789947 4.433984 -7.839085 -4.047439 0.404968 7.263583 3.244328 -48.531425 -1.413015 -7.804563 -0.402492 -61.558338 24.227098 -28.079035 -9.746187 -5.000000 45.000000 -25.510197 -2.325372 21.500023 6.348899 2.411428 -0.122686 21.240110 22.740917 0.282714 71.072136 -5.000000 -7.057662 -21.198233 26.978184 45.000000 4.686789 17.666224 -10.805820 0.802054 -8.102592 -0.497379 0.343549 -6.217015 -13.158309 24.332727 -3.429477 -38.843178 2.744526 2.409967 0.118903 -8.674238 -15.540812 8.936927 
-0.463915 52.012157 1.359977 -5.567128 5.769627 32.686119 30.328568 -1.874910 3.485077 -0.516946 0.819352 4.121508 -7.672186 -4.019935 0.390956 7.546025 3.274013 -47.112148 -1.707468 -8.009362 -0.413047 -61.889862 23.816881 -28.099293 -10.002402 -5.000000 45.000000 -25.325851 -2.265008 21.533506 6.418152 2.791779 -0.142391 21.917429 22.331434 0.689621 74.638222 -5.000000 -5.134587 -20.776175 26.027224 45.000000 5.263141 17.838848 -9.775966 0.829381 -8.051415 -0.548544 0.151796 -5.811117 -13.129568 24.212559 -3.595872 -37.933842 2.649909 2.382943 0.161860 -8.569864 -15.197344 8.895337 
-0.474332 52.024029 1.378352 -5.808143 5.536625 31.335186 30.202099 -1.890760 3.267786 -0.558066 0.839000 3.808890 -7.515258 -4.021396 0.381324 7.867359 3.291164 -45.584435 -2.021786 -8.253171 -0.427007 -62.112667 23.171268 -27.852701 -10.411307 -5.000000 45.000000 -24.876116 -2.173511 21.556328 6.497275 3.162377 -0.161585 22.628075 22.026520 1.091353 77.749046 -5.000000 -3.597966 -19.929354 25.033501 45.000000 5.888535 18.034222 -8.667001 0.820988 -8.032507 -0.539274 -0.005785 -5.484577 -13.073611 24.089914 -3.760411 -36.934277 2.541261 2.343189 0.135831 -8.401051 -14.797311 8.852062 
-0.481774 52.035908 1.393167 -6.060984 5.294725 29.926361 30.067078 -1.875165 3.074687 -0.599326 0.858644 3.506179 -7.358456 -4.042170 0.374613 8.221719 3.285170 -43.977451 -2.336313 -8.516483 -0.440606 -62.271675 22.368158 -27.427647 -10.922694 -5.000000 45.000000 -24.237408 -2.059901 21.589672 6.586225 3.513470 -0.179762 23.365675 21.797066 1.502836 80.544319 -5.000000 -2.380841 -18.801527 24.022182 45.000000 6.611047 18.220446 -7.467699 0.830409 -8.011885 -0.540563 -0.249020 -5.164757 -13.006188 23.974451 -3.965111 -35.895973 2.450942 2.311842 0.100859 -8.273386 -14.351457 8.782583 
-0.488618 52.047779 1.405609 -6.302386 5.042079 28.489712 29.923233 -1.837285 2.880343 -0.630593 0.888041 3.203471 -7.211600 -4.091909 0.372282 8.575281 3.273328 -42.330692 -2.650985 -8.789549 -0.454698 -62.389481 21.510286 -26.900927 -11.476787 -5.000000 45.000000 -23.549541 -1.953181 21.631971 6.685019 3.854809 -0.197427 24.145079 21.593987 1.923982 83.121597 -5.000000 -1.435408 -17.578541 22.980703 45.000000 7.312641 18.410851 -6.265580 0.820594 -8.012352 -0.500519 -0.449755 -4.895294 -12.932289 23.855396 -4.141606 -34.878887 2.352790 2.273226 0.095073 -8.144979 -13.904595 8.712157 
-0.493074 52.059654 1.408564 -6.552668 4.762616 26.996069 29.781080 -1.767337 2.707632 -0.681602 0.917435 2.891000 -7.083936 -4.201042 0.369083 8.970322 3.214718 -40.565182 -2.965728 -9.062613 -0.468780 -62.342018 20.412882 -25.949846 -12.169796 -5.000000 45.000000 -22.644056 -1.879171 21.724941 6.832637 4.166891 -0.213572 25.120157 21.506184 2.436241 85.033981 -5.000000 -0.822950 -15.982428 21.784702 45.000000 8.054235 18.567867 -4.981401 0.809445 -8.013504 -0.498138 -0.618537 -4.570426 -12.885132 23.692078 -4.357729 -33.823380 2.274088 2.242008 0.090487 -7.990222 -13.383818 8.656633 
-0.497527 52.071522 1.411512 -6.801718 4.479615 25.503769 29.639042 -1.684454 2.530031 -0.723055 0.946825 2.588136 -6.956230 -4.310177 0.365888 9.359360 3.145705 -38.789742 -3.280626 -9.345428 -0.483354 -62.309124 19.314222 -25.017441 -12.868095 -5.000000 45.000000 -21.724987 -1.807634 21.812664 6.970578 4.478973 -0.229711 26.093678 21.408072 2.942638 86.935036 -5.000000 -0.363834 -14.380702 20.611048 45.000000 8.806706 18.714457 -3.664777 0.801042 -8.024178 -0.498286 -0.842132 -4.254934 -12.834730 23.537907 -4.562378 -32.754452 2.189060 2.216580 0.085832 -7.784570 -12.916803 8.578722 
-0.498405 52.083393 1.404969 -7.055954 4.186101 23.984379 29.536982 -1.557370 2.371766 -0.754689 0.985970 2.295197 -6.858523 -4.417849 0.372324 9.693386 3.005679 -36.963390 -3.575811 -9.598988 -0.498039 -62.057117 18.033918 -23.667107 -13.678967 -5.000000 44.697834 -20.745756 -1.846516 22.013674 7.128055 4.771548 -0.244835 27.321638 21.392641 3.569734 88.099785 -3.925146 -0.135515 -12.500293 19.078371 45.000000 9.587856 18.853231 -2.363100 0.761340 -8.027954 -0.482935 -0.999436 -3.961832 -12.786527 23.360573 -4.768023 -31.685480 2.140878 2.208897 0.092800 -7.609632 -12.467038 8.467294 
